  0
SECTION
  2
BLOCKS
  0
ENDSEC
  0
SECTION
  2
ENTITIES
  0
LINE
  8
0
 10
-75.4834
 20
-18.6504
 11
-75.4817
 21
-18.6656
  0
LINE
  8
0
 10
-75.4817
 20
-18.6656
 11
-74.0586
 21
-31.2573
  0
LINE
  8
0
 10
-74.0586
 20
-31.2573
 11
-73.767
 21
-33.8373
  0
LINE
  8
0
 10
-73.767
 20
-33.8373
 11
-73.5821
 21
-35.5715
  0
LINE
  8
0
 10
-73.5821
 20
-35.5715
 11
-72.9064
 21
-41.9105
  0
LINE
  8
0
 10
-72.9064
 20
-41.9105
 11
-72.8901
 21
-41.9869
  0
LINE
  8
0
 10
-72.8901
 20
-41.9869
 11
-72.8856
 21
-42.0078
  0
LINE
  8
0
 10
-72.8856
 20
-42.0078
 11
-72.8856
 21
-42.0078
  0
LINE
  8
0
 10
-72.8856
 20
-42.0078
 11
-71.0831
 21
-50.4331
  0
LINE
  8
0
 10
-71.0831
 20
-50.4331
 11
-65.0929
 21
-78.4339
  0
LINE
  8
0
 10
-65.0929
 20
-78.4339
 11
-63.1208
 21
-79.7137
  0
LINE
  8
0
 10
-63.1208
 20
-79.7137
 11
-57
 21
-83.6861
  0
LINE
  8
0
 10
-57
 20
-83.6861
 11
-56.7847
 21
-83.7194
  0
LINE
  8
0
 10
-56.7847
 20
-83.7194
 11
-56.034
 21
-83.8355
  0
LINE
  8
0
 10
-56.034
 20
-83.8355
 11
-55.9603
 21
-83.8181
  0
LINE
  8
0
 10
-55.9603
 20
-83.8181
 11
-55.9603
 21
-83.8181
  0
LINE
  8
0
 10
-55.9603
 20
-83.8181
 11
-51.9998
 21
-82.8836
  0
LINE
  8
0
 10
-51.9998
 20
-82.8836
 11
-51.9995
 21
-82.8835
  0
LINE
  8
0
 10
-51.9995
 20
-82.8835
 11
-39.7798
 21
-80.0002
  0
LINE
  8
0
 10
-39.7798
 20
-80.0002
 11
-38.9725
 21
-79.818
  0
LINE
  8
0
 10
-38.9725
 20
-79.818
 11
-36.52
 21
-79.2647
  0
LINE
  8
0
 10
-36.52
 20
-79.2647
 11
-32.2186
 21
-78.3377
  0
LINE
  8
0
 10
-32.2186
 20
-78.3377
 11
-19.9283
 21
-75.6891
  0
LINE
  8
0
 10
-19.9283
 20
-75.6891
 11
-19.9283
 21
-75.6891
  0
LINE
  8
0
 10
-19.9283
 20
-75.6891
 11
-19.5824
 21
-72.9429
  0
LINE
  8
0
 10
-19.5824
 20
-72.9429
 11
-18.597
 21
-65.1193
  0
LINE
  8
0
 10
-18.597
 20
-65.1193
 11
-14.2135
 21
-64.2614
  0
LINE
  8
0
 10
-14.2135
 20
-64.2614
 11
-14.2132
 21
-64.2613
  0
LINE
  8
0
 10
-14.2132
 20
-64.2613
 11
-1.82177
 21
-61.8362
  0
LINE
  8
0
 10
-1.82177
 20
-61.8362
 11
-1.79564
 21
-61.8311
  0
LINE
  8
0
 10
-1.79564
 20
-61.8311
 11
15.8546
 21
-56.5245
  0
LINE
  8
0
 10
15.8546
 20
-56.5245
 11
34.8856
 21
-50.8028
  0
LINE
  8
0
 10
34.8856
 20
-50.8028
 11
43.6887
 21
-50.8028
  0
LINE
  8
0
 10
43.6887
 20
-50.8028
 11
51.9703
 21
-50.8028
  0
LINE
  8
0
 10
51.9703
 20
-50.8028
 11
55.2549
 21
-47.5443
  0
LINE
  8
0
 10
55.2549
 20
-47.5443
 11
58.7858
 21
-44.0414
  0
LINE
  8
0
 10
58.7858
 20
-44.0414
 11
58.9234
 21
-43.6183
  0
LINE
  8
0
 10
58.9234
 20
-43.6183
 11
59.1225
 21
-43.0061
  0
LINE
  8
0
 10
59.1225
 20
-43.0061
 11
59.1214
 21
-42.9594
  0
LINE
  8
0
 10
59.1214
 20
-42.9594
 11
59.1213
 21
-42.9534
  0
LINE
  8
0
 10
59.1213
 20
-42.9534
 11
58.9223
 21
-34.4346
  0
LINE
  8
0
 10
58.9223
 20
-34.4346
 11
58.7357
 21
-26.4404
  0
LINE
  8
0
 10
58.7357
 20
-26.4404
 11
58.6921
 21
-22.6426
  0
LINE
  8
0
 10
58.6921
 20
-22.6426
 11
58.6678
 21
-20.525
  0
LINE
  8
0
 10
58.6678
 20
-20.525
 11
58.6678
 21
-3.475
  0
LINE
  8
0
 10
58.6678
 20
-3.475
 11
58.6921
 21
-1.35735
  0
LINE
  8
0
 10
58.6921
 20
-1.35735
 11
58.7357
 21
2.44045
  0
LINE
  8
0
 10
58.7357
 20
2.44045
 11
58.9223
 21
10.4346
  0
LINE
  8
0
 10
58.9223
 20
10.4346
 11
59.1213
 21
18.9534
  0
LINE
  8
0
 10
59.1213
 20
18.9534
 11
59.1214
 21
18.9594
  0
LINE
  8
0
 10
59.1214
 20
18.9594
 11
59.1225
 21
19.0061
  0
LINE
  8
0
 10
59.1225
 20
19.0061
 11
58.9234
 21
19.6183
  0
LINE
  8
0
 10
58.9234
 20
19.6183
 11
58.7858
 21
20.0414
  0
LINE
  8
0
 10
58.7858
 20
20.0414
 11
55.2549
 21
23.5443
  0
LINE
  8
0
 10
55.2549
 20
23.5443
 11
51.9703
 21
26.8028
  0
LINE
  8
0
 10
51.9703
 20
26.8028
 11
43.6887
 21
26.8028
  0
LINE
  8
0
 10
43.6887
 20
26.8028
 11
34.8856
 21
26.8028
  0
LINE
  8
0
 10
34.8856
 20
26.8028
 11
32.5244
 21
32.3819
  0
LINE
  8
0
 10
32.5244
 20
32.3819
 11
30.2451
 21
37.7676
  0
LINE
  8
0
 10
30.2451
 20
37.7676
 11
29.8228
 21
38.4192
  0
LINE
  8
0
 10
29.8228
 20
38.4192
 11
29.5742
 21
38.8028
  0
LINE
  8
0
 10
29.5742
 20
38.8028
 11
23.2799
 21
38.8028
  0
LINE
  8
0
 10
23.2799
 20
38.8028
 11
23.2064
 21
38.8028
  0
LINE
  8
0
 10
23.2064
 20
38.8028
 11
12.6848
 21
38.8028
  0
LINE
  8
0
 10
12.6848
 20
38.8028
 11
9.45682
 21
40.6389
  0
LINE
  8
0
 10
9.45682
 20
40.6389
 11
7.72691
 21
41.6228
  0
LINE
  8
0
 10
7.72691
 20
41.6228
 11
1.91306
 21
41.6228
  0
LINE
  8
0
 10
1.91306
 20
41.6228
 11
1.83221
 21
41.6228
  0
LINE
  8
0
 10
1.83221
 20
41.6228
 11
-8.93531
 21
41.6228
  0
LINE
  8
0
 10
-8.93531
 20
41.6228
 11
-10.1904
 21
40.2285
  0
LINE
  8
0
 10
-10.1904
 20
40.2285
 11
-11.4738
 21
38.8028
  0
LINE
  8
0
 10
-11.4738
 20
38.8028
 11
-21.1597
 21
38.8028
  0
LINE
  8
0
 10
-21.1597
 20
38.8028
 11
-27.5592
 21
38.8028
  0
LINE
  8
0
 10
-27.5592
 20
38.8028
 11
-29.9898
 21
38.8028
  0
LINE
  8
0
 10
-29.9898
 20
38.8028
 11
-30.0213
 21
38.8028
  0
LINE
  8
0
 10
-30.0213
 20
38.8028
 11
-31.1486
 21
38.8028
  0
LINE
  8
0
 10
-31.1486
 20
38.8028
 11
-41.9071
 21
38.8028
  0
LINE
  8
0
 10
-41.9071
 20
38.8028
 11
-46.6968
 21
38.8028
  0
LINE
  8
0
 10
-46.6968
 20
38.8028
 11
-46.7197
 21
38.8028
  0
LINE
  8
0
 10
-46.7197
 20
38.8028
 11
-52.0388
 21
33.7444
  0
LINE
  8
0
 10
-52.0388
 20
33.7444
 11
-53.8295
 21
32.0414
  0
LINE
  8
0
 10
-53.8295
 20
32.0414
 11
-53.8378
 21
31.9683
  0
LINE
  8
0
 10
-53.8378
 20
31.9683
 11
-53.8404
 21
31.9448
  0
LINE
  8
0
 10
-53.8404
 20
31.9448
 11
-54.3474
 21
27.4676
  0
LINE
  8
0
 10
-54.3474
 20
27.4676
 11
-55.7163
 21
15.3791
  0
LINE
  8
0
 10
-55.7163
 20
15.3791
 11
-55.9906
 21
10.4504
  0
LINE
  8
0
 10
-55.9906
 20
10.4504
 11
-56.0921
 21
8.625
  0
LINE
  8
0
 10
-56.0921
 20
8.625
 11
-56.0921
 21
-1.525
  0
LINE
  8
0
 10
-56.0921
 20
-1.525
 11
-58.8697
 21
-6.65758
  0
LINE
  8
0
 10
-58.8697
 20
-6.65758
 11
-59.9298
 21
-8.6164
  0
LINE
  8
0
 10
-59.9298
 20
-8.6164
 11
-61.5294
 21
-8.99384
  0
LINE
  8
0
 10
-61.5294
 20
-8.99384
 11
-69.5496
 21
-10.8863
  0
LINE
  8
0
 10
-69.5496
 20
-10.8863
 11
-70.5627
 21
-12.2119
  0
LINE
  8
0
 10
-70.5627
 20
-12.2119
 11
-70.5628
 21
-12.212
  0
LINE
  8
0
 10
-70.5628
 20
-12.212
 11
-75.4834
 21
-18.6504
  0
LINE
  8
0
 10
-72.2717
 20
-19.8982
 11
-72.2717
 21
-19.8982
  0
LINE
  8
0
 10
-72.2717
 20
-19.8982
 11
-71.5944
 21
-19.012
  0
LINE
  8
0
 10
-71.5944
 20
-19.012
 11
-68.0333
 21
-14.3524
  0
LINE
  8
0
 10
-68.0333
 20
-14.3524
 11
-58.4376
 21
-12.0882
  0
LINE
  8
0
 10
-58.4376
 20
-12.0882
 11
-56.5968
 21
-11.6539
  0
LINE
  8
0
 10
-56.5968
 20
-11.6539
 11
-56.5179
 21
-11.6352
  0
LINE
  8
0
 10
-56.5179
 20
-11.6352
 11
-56.5179
 21
-11.6352
  0
LINE
  8
0
 10
-56.5179
 20
-11.6352
 11
-53.17
 21
-4.96339
  0
LINE
  8
0
 10
-53.17
 20
-4.96339
 11
-52.4984
 21
-3.625
  0
LINE
  8
0
 10
-52.4984
 20
-3.625
 11
-52.4984
 21
8.525
  0
LINE
  8
0
 10
-52.4984
 20
8.525
 11
-52.2538
 21
12.9204
  0
LINE
  8
0
 10
-52.2538
 20
12.9204
 11
-52.1693
 21
14.4404
  0
LINE
  8
0
 10
-52.1693
 20
14.4404
 11
-51.739
 21
18.2401
  0
LINE
  8
0
 10
-51.739
 20
18.2401
 11
-50.3043
 21
30.9095
  0
LINE
  8
0
 10
-50.3043
 20
30.9095
 11
-49.1134
 21
32.042
  0
LINE
  8
0
 10
-49.1134
 20
32.042
 11
-45.2259
 21
35.7391
  0
LINE
  8
0
 10
-45.2259
 20
35.7391
 11
-33.3452
 21
35.7391
  0
LINE
  8
0
 10
-33.3452
 20
35.7391
 11
-33.3276
 21
35.7391
  0
LINE
  8
0
 10
-33.3276
 20
35.7391
 11
-29.7082
 21
35.7391
  0
LINE
  8
0
 10
-29.7082
 20
35.7391
 11
-27.3213
 21
35.7391
  0
LINE
  8
0
 10
-27.3213
 20
35.7391
 11
-26.3842
 21
35.7391
  0
LINE
  8
0
 10
-26.3842
 20
35.7391
 11
-14.9919
 21
35.7391
  0
LINE
  8
0
 10
-14.9919
 20
35.7391
 11
-14.9691
 21
35.7391
  0
LINE
  8
0
 10
-14.9691
 20
35.7391
 11
-10.2443
 21
35.7391
  0
LINE
  8
0
 10
-10.2443
 20
35.7391
 11
-9.25656
 21
36.9689
  0
LINE
  8
0
 10
-9.25656
 20
36.9689
 11
-7.97939
 21
38.5591
  0
LINE
  8
0
 10
-7.97939
 20
38.5591
 11
8.48964
 21
38.5591
  0
LINE
  8
0
 10
8.48964
 20
38.5591
 11
10.6451
 21
37.2584
  0
LINE
  8
0
 10
10.6451
 20
37.2584
 11
13.1628
 21
35.7391
  0
LINE
  8
0
 10
13.1628
 20
35.7391
 11
22.4606
 21
35.7391
  0
LINE
  8
0
 10
22.4606
 20
35.7391
 11
29.8336
 21
35.7391
  0
LINE
  8
0
 10
29.8336
 20
35.7391
 11
31.7472
 21
31.3582
  0
LINE
  8
0
 10
31.7472
 20
31.3582
 11
35.0753
 21
23.7391
  0
LINE
  8
0
 10
35.0753
 20
23.7391
 11
45.1195
 21
23.7391
  0
LINE
  8
0
 10
45.1195
 20
23.7391
 11
52.1601
 21
23.7391
  0
LINE
  8
0
 10
52.1601
 20
23.7391
 11
54.8729
 21
21.0477
  0
LINE
  8
0
 10
54.8729
 20
21.0477
 11
56.6755
 21
19.2594
  0
LINE
  8
0
 10
56.6755
 20
19.2594
 11
56.3871
 21
6.91032
  0
LINE
  8
0
 10
56.3871
 20
6.91032
 11
56.3046
 21
3.37913
  0
LINE
  8
0
 10
56.3046
 20
3.37913
 11
56.2882
 21
1.94774
  0
LINE
  8
0
 10
56.2882
 20
1.94774
 11
56.2272
 21
-3.375
  0
LINE
  8
0
 10
56.2272
 20
-3.375
 11
56.2272
 21
-20.625
  0
LINE
  8
0
 10
56.2272
 20
-20.625
 11
56.2882
 21
-25.9477
  0
LINE
  8
0
 10
56.2882
 20
-25.9477
 11
56.3046
 21
-27.3791
  0
LINE
  8
0
 10
56.3046
 20
-27.3791
 11
56.3871
 21
-30.9103
  0
LINE
  8
0
 10
56.3871
 20
-30.9103
 11
56.6755
 21
-43.2594
  0
LINE
  8
0
 10
56.6755
 20
-43.2594
 11
54.8729
 21
-45.0477
  0
LINE
  8
0
 10
54.8729
 20
-45.0477
 11
52.1601
 21
-47.7391
  0
LINE
  8
0
 10
52.1601
 20
-47.7391
 11
45.1195
 21
-47.7391
  0
LINE
  8
0
 10
45.1195
 20
-47.7391
 11
35.0753
 21
-47.7391
  0
LINE
  8
0
 10
35.0753
 20
-47.7391
 11
23.9112
 21
-51.2262
  0
LINE
  8
0
 10
23.9112
 20
-51.2262
 11
-2.58219
 21
-59.5015
  0
LINE
  8
0
 10
-2.58219
 20
-59.5015
 11
-2.58219
 21
-59.5015
  0
LINE
  8
0
 10
-2.58219
 20
-59.5015
 11
-2.58219
 21
-59.5015
  0
LINE
  8
0
 10
-2.58219
 20
-59.5015
 11
-14.3726
 21
-61.809
  0
LINE
  8
0
 10
-14.3726
 20
-61.809
 11
-19.3835
 21
-62.7897
  0
LINE
  8
0
 10
-19.3835
 20
-62.7897
 11
-19.3835
 21
-62.7897
  0
LINE
  8
0
 10
-19.3835
 20
-62.7897
 11
-19.8772
 21
-65.8987
  0
LINE
  8
0
 10
-19.8772
 20
-65.8987
 11
-21.0741
 21
-73.4353
  0
LINE
  8
0
 10
-21.0741
 20
-73.4353
 11
-25.5965
 21
-74.4099
  0
LINE
  8
0
 10
-25.5965
 20
-74.4099
 11
-37.5946
 21
-76.9955
  0
LINE
  8
0
 10
-37.5946
 20
-76.9955
 11
-37.5946
 21
-76.9955
  0
LINE
  8
0
 10
-37.5946
 20
-76.9955
 11
-37.665
 21
-77.0107
  0
LINE
  8
0
 10
-37.665
 20
-77.0107
 11
-40.1552
 21
-77.5726
  0
LINE
  8
0
 10
-40.1552
 20
-77.5726
 11
-40.1553
 21
-77.5726
  0
LINE
  8
0
 10
-40.1553
 20
-77.5726
 11
-41.0885
 21
-77.7832
  0
LINE
  8
0
 10
-41.0885
 20
-77.7832
 11
-41.1579
 21
-77.7995
  0
LINE
  8
0
 10
-41.1579
 20
-77.7995
 11
-45.105
 21
-78.7309
  0
LINE
  8
0
 10
-45.105
 20
-78.7309
 11
-56.8031
 21
-81.4911
  0
LINE
  8
0
 10
-56.8031
 20
-81.4911
 11
-57.6168
 21
-80.963
  0
LINE
  8
0
 10
-57.6168
 20
-80.963
 11
-62.1574
 21
-78.0162
  0
LINE
  8
0
 10
-62.1574
 20
-78.0162
 11
-68.2784
 21
-49.4045
  0
LINE
  8
0
 10
-68.2784
 20
-49.4045
 11
-69.9293
 21
-41.6875
  0
LINE
  8
0
 10
-69.9293
 20
-41.6875
 11
-70.0457
 21
-40.4595
  0
LINE
  8
0
 10
-70.0457
 20
-40.4595
 11
-70.5553
 21
-35.0851
  0
LINE
  8
0
 10
-70.5553
 20
-35.0851
 11
-70.5634
 21
-35.013
  0
LINE
  8
0
 10
-70.5634
 20
-35.013
 11
-70.8443
 21
-32.5275
  0
LINE
  8
0
 10
-70.8443
 20
-32.5275
 11
-72.2717
 21
-19.8982
  0
ENDSEC
  0
SECTION
  2
OBJECTS
  0
DICTIONARY
  0
ENDSEC
  0
EOF
