solid Untitled Scene
  facet normal 0.9848126194542688 -0.003037803630937528 0.17359399849280874
    outer loop
      vertex 105.76958322525024 32.94078063964844 4.232291600514415e-15
      vertex 105.82190322875977 49.90217971801758 3.193625919273302e-15
      vertex 102.9755630493164 50.515567779541016 16.158249160740528
    endloop
  endfacet
  facet normal 0.9848126319594581 -0.0030377374822245272 0.1735939287074122
    outer loop
      vertex 105.76958322525024 32.94078063964844 4.232291600514415e-15
      vertex 102.9755630493164 50.515567779541016 16.158249160740528
      vertex 100.65500313043594 0 28.438999435398735
    endloop
  endfacet
  facet normal 0.9848126142391286 -0.003037646567075446 0.17359403082717717
    outer loop
      vertex 105.76958322525024 32.94078063964844 4.232291600514415e-15
      vertex 100.65500313043594 0 28.438999435398735
      vertex 105.68367290496826 5.08843994140625 5.9375247773996165e-15
    endloop
  endfacet
  facet normal 1.6508932504805818e-20 -6.124898357680821e-17 -1
    outer loop
      vertex 105.76958322525024 32.94078063964844 4.232291600514415e-15
      vertex 63.080902099609375 3.9128875732421875 6.009515801652654e-15
      vertex 102.12900304794312 50.697998046875 3.144619981076957e-15
    endloop
  endfacet
  facet normal 7.371102228159756e-20 -6.123725601897264e-17 -0.9999999999999999
    outer loop
      vertex 102.12900304794312 50.697998046875 3.144619981076957e-15
      vertex 105.82190322875977 49.90217971801758 3.193625919273302e-15
      vertex 105.76958322525024 32.94078063964844 4.232291600514415e-15
    endloop
  endfacet
  facet normal -4.447042766193694e-22 -6.12240514057813e-17 -1
    outer loop
      vertex 105.68367290496826 5.08843994140625 5.9375247773996165e-15
      vertex 63.080902099609375 3.9128875732421875 6.009515801652654e-15
      vertex 105.76958322525024 32.94078063964844 4.232291600514415e-15
    endloop
  endfacet
  facet normal 0.21066344928597375 0.9775586484374748 -1.834572365837132e-7
    outer loop
      vertex 102.9755630493164 50.515567779541016 16.158249160740528
      vertex 105.82190322875977 49.90217971801758 3.193625919273302e-15
      vertex 102.12900304794312 50.697998046875 3.144619981076957e-15
    endloop
  endfacet
  facet normal 0.9848126595404629 -0.003037776956151802 0.17359377154726713
    outer loop
      vertex 102.12900304794312 50.697998046875 20.96405055234209
      vertex 100.65500313043594 0 28.438999435398735
      vertex 102.9755630493164 50.515567779541016 16.158249160740528
    endloop
  endfacet
  facet normal 0.21066010304257557 0.9775593695454466 0
    outer loop
      vertex 102.12900304794312 50.697998046875 20.96405055234209
      vertex 102.9755630493164 50.515567779541016 16.158249160740528
      vertex 102.12900304794312 50.697998046875 3.144619981076957e-15
    endloop
  endfacet
  facet normal 0.9848123347925126 -0.0030380154443438237 0.1735956096872266
    outer loop
      vertex 99.54600311815739 61.538909912109375 35.80734851071611
      vertex 98.90727311372757 65.70267105102539 39.503748199436814
      vertex 100.65500313043594 0 28.438999435398735
    endloop
  endfacet
  facet normal 0.9848150425530562 -0.003035364186193125 0.1735802941738475
    outer loop
      vertex 98.82774311304092 66.22103881835938 39.964029571507126
      vertex 100.65500313043594 0 28.438999435398735
      vertex 98.90727311372757 65.70267105102539 39.503748199436814
    endloop
  endfacet
  facet normal 0.9848126675478975 -0.003037783904661239 0.1735937259987897
    outer loop
      vertex 100.65500313043594 0 28.438999435398735
      vertex 102.12900304794312 50.697998046875 20.96405055234209
      vertex 99.54600311815739 61.538909912109375 35.80734851071611
    endloop
  endfacet
  facet normal -0.1714889848043915 -0.17351244635108662 0.9697860377691672
    outer loop
      vertex 2.1740036010742188 0.30500030517578125 11.078999778721489
      vertex 100.65500313043594 0 28.438999435398735
      vertex 84.5720329284668 67.4523696899414 37.66348101804033
    endloop
  endfacet
  facet normal -0.17148855909029728 -0.17351235731950906 0.96978612897822
    outer loop
      vertex 98.82774311304092 66.22103881835938 39.964029571507126
      vertex 84.5720329284668 67.4523696899414 37.66348101804033
      vertex 100.65500313043594 0 28.438999435398735
    endloop
  endfacet
  facet normal 0.027174626639072396 -0.9848258757146466 -0.17140459209107017
    outer loop
      vertex 63.080902099609375 3.9128875732421875 6.009515801652654e-15
      vertex 105.68367290496826 5.08843994140625 5.9375247773996165e-15
      vertex 100.65500313043594 0 28.438999435398735
    endloop
  endfacet
  facet normal 0.02716183654005209 -0.9848290924886116 -0.17138813618167806
    outer loop
      vertex 100.65500313043594 0 28.438999435398735
      vertex 2.1740036010742188 0.30500030517578125 11.078999778721489
      vertex 63.080902099609375 3.9128875732421875 6.009515801652654e-15
    endloop
  endfacet
  facet normal 0.02716189976955176 -0.9848291480868385 -0.1713878066825666
    outer loop
      vertex 4.133026123046875 2.2870864868164062 6.10926240152132e-15
      vertex 63.080902099609375 3.9128875732421875 6.009515801652654e-15
      vertex 2.1740036010742188 0.30500030517578125 11.078999778721489
    endloop
  endfacet
  facet normal -4.96797643545366e-21 -6.123461021540342e-17 -1
    outer loop
      vertex 63.080902099609375 3.9128875732421875 6.009515801652654e-15
      vertex 4.208641052246094 26.800521850585938 4.608292913932388e-15
      vertex 30.2760009765625 75.65199851989746 1.6167622796103842e-15
    endloop
  endfacet
  facet normal -1.9434631585942605e-21 -6.123358271526681e-17 -1
    outer loop
      vertex 63.080902099609375 3.9128875732421875 6.009515801652654e-15
      vertex 84.0490026473999 64.572998046875 2.2950391587173158e-15
      vertex 102.12900304794312 50.697998046875 3.144619981076957e-15
    endloop
  endfacet
  facet normal -5.338268899881908e-20 -6.121580195537211e-17 -1
    outer loop
      vertex 63.080902099609375 3.9128875732421875 6.009515801652654e-15
      vertex 80.8547134399414 69.28694915771484 2.0066413808361716e-15
      vertex 84.0490026473999 64.572998046875 2.2950391587173158e-15
    endloop
  endfacet
  facet normal 0 -6.123233845633649e-17 -1
    outer loop
      vertex 30.2760009765625 75.65199851989746 1.6167622796103842e-15
      vertex 47.41100311279297 75.65199851989746 1.6167622796103842e-15
      vertex 63.080902099609375 3.9128875732421875 6.009515801652654e-15
    endloop
  endfacet
  facet normal -6.459035254724711e-17 -4.3669577980057007e-17 -1
    outer loop
      vertex 80.8547134399414 69.28694915771484 2.0066413808361716e-15
      vertex 63.080902099609375 3.9128875732421875 6.009515801652654e-15
      vertex 80.85348320007324 69.28876876831055 2.0066413808361716e-15
    endloop
  endfacet
  facet normal 7.601993476594043e-21 -6.123067796085077e-17 -1
    outer loop
      vertex 63.080902099609375 3.9128875732421875 6.009515801652654e-15
      vertex 47.41100311279297 75.65199851989746 1.6167622796103842e-15
      vertex 80.85348320007324 69.28876876831055 2.0066413808361716e-15
    endloop
  endfacet
  facet normal -3.3594240811582984e-21 -6.12304726486736e-17 -1
    outer loop
      vertex 4.133026123046875 2.2870864868164062 6.10926240152132e-15
      vertex 4.208641052246094 26.800521850585938 4.608292913932388e-15
      vertex 63.080902099609375 3.9128875732421875 6.009515801652654e-15
    endloop
  endfacet
  facet normal 0.9922475931374962 0.12427676336647017 0
    outer loop
      vertex 102.12900304794312 50.697998046875 3.144619981076957e-15
      vertex 100.8020031452179 61.292999267578125 2.4962670819306254e-15
      vertex 102.12900304794312 50.697998046875 20.96405055234209
    endloop
  endfacet
  facet normal 3.1264885588885695e-20 -6.119031014167e-17 -0.9999999999999999
    outer loop
      vertex 100.8020031452179 61.292999267578125 2.4962670819306254e-15
      vertex 102.12900304794312 50.697998046875 3.144619981076957e-15
      vertex 84.0490026473999 64.572998046875 2.2950391587173158e-15
    endloop
  endfacet
  facet normal 0.9848126941531452 -0.0030375758916658625 0.17359357870476103
    outer loop
      vertex 100.8020031452179 61.292999267578125 28.6776392669417
      vertex 99.54600311815739 61.538909912109375 35.80734851071611
      vertex 102.12900304794312 50.697998046875 20.96405055234209
    endloop
  endfacet
  facet normal 0.9922475931374962 0.1242767633664703 0
    outer loop
      vertex 100.8020031452179 61.292999267578125 28.6776392669417
      vertex 102.12900304794312 50.697998046875 20.96405055234209
      vertex 100.8020031452179 61.292999267578125 2.4962670819306254e-15
    endloop
  endfacet
  facet normal 0.1744311388644097 0.6685416387701237 -0.7229286652395397
    outer loop
      vertex 84.0490026473999 64.572998046875 34.87399890134111
      vertex 98.90727311372757 65.70267105102539 39.503748199436814
      vertex 99.54600311815739 61.538909912109375 35.80734851071611
    endloop
  endfacet
  facet normal 0.19213763190909955 0.981367989290645 0
    outer loop
      vertex 84.0490026473999 64.572998046875 34.87399890134111
      vertex 99.54600311815739 61.538909912109375 35.80734851071611
      vertex 84.0490026473999 64.572998046875 26.874000808689747
    endloop
  endfacet
  facet normal 0.1921379121139296 0.981367934430428 -5.047139399112665e-7
    outer loop
      vertex 100.8020031452179 61.292999267578125 28.6776392669417
      vertex 84.0490026473999 64.572998046875 26.874000808689747
      vertex 99.54600311815739 61.538909912109375 35.80734851071611
    endloop
  endfacet
  facet normal 0.17440540316120778 0.6686176125637593 -0.7228646093963345
    outer loop
      vertex 98.90727311372757 65.70267105102539 39.503748199436814
      vertex 84.0490026473999 64.572998046875 34.87399890134111
      vertex 84.5720329284668 67.4523696899414 37.66348101804033
    endloop
  endfacet
  facet normal 0.17440540914559327 0.6686194734233746 -0.7228628867356571
    outer loop
      vertex 98.82774311304092 66.22103881835938 39.964029571507126
      vertex 98.90727311372757 65.70267105102539 39.503748199436814
      vertex 84.5720329284668 67.4523696899414 37.66348101804033
    endloop
  endfacet
  facet normal -0.9848126076306517 0.003037796342028095 -0.17359406569667127
    outer loop
      vertex 0 79.09099960327148 24.791000625584275
      vertex 4.208641052246094 26.800521850585938 4.608292913932388e-15
      vertex 2.1740036010742188 0.30500030517578125 11.078999778721489
    endloop
  endfacet
  facet normal -0.9848126028511729 0.0030377845509629345 -0.17359409301736065
    outer loop
      vertex 4.208641052246094 26.800521850585938 4.608292913932388e-15
      vertex 4.133026123046875 2.2870864868164062 6.10926240152132e-15
      vertex 2.1740036010742188 0.30500030517578125 11.078999778721489
    endloop
  endfacet
  facet normal -0.1714878566432243 -0.1735139043531802 0.9697859763989313
    outer loop
      vertex 82.56397247314453 70.4043083190918 37.83656146237627
      vertex 81.58984375 71.9244499206543 37.9362890929915
      vertex 2.1740036010742188 0.30500030517578125 11.078999778721489
    endloop
  endfacet
  facet normal -0.17147376825629132 -0.17353087845196297 0.9697854304039
    outer loop
      vertex 84.5720329284668 67.4523696899414 37.66348101804033
      vertex 84.4479627609253 67.46308898925781 37.64346148679033
      vertex 2.1740036010742188 0.30500030517578125 11.078999778721489
    endloop
  endfacet
  facet normal -0.1714869669260698 -0.1735149156674759 0.9697859527830901
    outer loop
      vertex 84.4479627609253 67.46308898925781 37.64346148679033
      vertex 82.56397247314453 70.4043083190918 37.83656146237627
      vertex 2.1740036010742188 0.30500030517578125 11.078999778721489
    endloop
  endfacet
  facet normal -0.1714871262707616 -0.17351470869738608 0.9697859616374415
    outer loop
      vertex 81.58984375 71.9244499206543 37.9362890929915
      vertex 67.01800155639648 78.88411903381348 36.60478045651689
      vertex 2.1740036010742188 0.30500030517578125 11.078999778721489
    endloop
  endfacet
  facet normal -0.17148727675778533 -0.17351458316625878 0.9697859574869281
    outer loop
      vertex 67.01800155639648 78.88411903381348 36.60478045651689
      vertex 0 79.09099960327148 24.791000625584275
      vertex 2.1740036010742188 0.30500030517578125 11.078999778721489
    endloop
  endfacet
  facet normal 0.17440552395710765 0.6686175861003023 -0.7228646047294416
    outer loop
      vertex 84.4479627609253 67.46308898925781 37.64346148679033
      vertex 84.5720329284668 67.4523696899414 37.66348101804033
      vertex 84.0490026473999 64.572998046875 34.87399890134111
    endloop
  endfacet
  facet normal -0.9848126074140443 0.003037796937115444 -0.1735940669150884
    outer loop
      vertex 0 79.09099960327148 24.791000625584275
      vertex 4.3836212158203125 83.52672004699707 1.1345091532888318e-15
      vertex 4.208641052246094 26.800521850585938 4.608292913932388e-15
    endloop
  endfacet
  facet normal 7.56065776655178e-21 -6.124129554897715e-17 -1
    outer loop
      vertex 23.46100616455078 82.41399955749512 1.2025970497209215e-15
      vertex 30.2760009765625 75.65199851989746 1.6167622796103842e-15
      vertex 4.208641052246094 26.800521850585938 4.608292913932388e-15
    endloop
  endfacet
  facet normal -2.7558275796944833e-21 -6.123772417112504e-17 -1
    outer loop
      vertex 4.3836212158203125 83.52672004699707 1.1345091532888318e-15
      vertex 23.46100616455078 82.41399955749512 1.2025970497209215e-15
      vertex 4.208641052246094 26.800521850585938 4.608292913932388e-15
    endloop
  endfacet
  facet normal 0.704341533140954 0.7098612573542821 2.195757878961651e-7
    outer loop
      vertex 28.85655975341797 77.06040000915527 7.994000217411669
      vertex 30.2760009765625 75.65199851989746 1.6167622796103842e-15
      vertex 23.46100616455078 82.41399955749512 6.0820000381208965
    endloop
  endfacet
  facet normal 0.704341434396594 0.709861355330848 0
    outer loop
      vertex 23.46100616455078 82.41399955749512 1.2025970497209215e-15
      vertex 23.46100616455078 82.41399955749512 6.0820000381208965
      vertex 30.2760009765625 75.65199851989746 1.6167622796103842e-15
    endloop
  endfacet
  facet normal 0.7043409100109013 0.7098618756385046 0
    outer loop
      vertex 30.2760009765625 75.65199851989746 1.6167622796103842e-15
      vertex 28.85655975341797 77.06040000915527 7.994000217411669
      vertex 30.2760009765625 75.65199851989746 16.496999999973923
    endloop
  endfacet
  facet normal 0 1 0
    outer loop
      vertex 30.2760009765625 75.65199851989746 1.6167622796103842e-15
      vertex 30.2760009765625 75.65199851989746 16.496999999973923
      vertex 47.41100311279297 75.65199851989746 1.6167622796103842e-15
    endloop
  endfacet
  facet normal 0.1921378597821246 0.981367944676381 0
    outer loop
      vertex 84.0490026473999 64.572998046875 2.2950391587173158e-15
      vertex 84.0490026473999 64.572998046875 26.874000808689747
      vertex 100.8020031452179 61.292999267578125 2.4962670819306254e-15
    endloop
  endfacet
  facet normal 0.827839789122815 0.5609646009732641 0
    outer loop
      vertex 84.0490026473999 64.572998046875 26.874000808689747
      vertex 84.0490026473999 64.572998046875 2.2950391587173158e-15
      vertex 80.8547134399414 69.28694915771484 2.0066413808361716e-15
    endloop
  endfacet
  facet normal 0.8278143520029949 0.5610021377192351 0.000009607795450210845
    outer loop
      vertex 84.0490026473999 64.572998046875 26.874000808689747
      vertex 80.8547134399414 69.28694915771484 2.0066413808361716e-15
      vertex 78.49600219726562 72.76699829101562 27.062999984715137
    endloop
  endfacet
  facet normal 0.828425610743113 0.5600990764329111 0.00017900810092153537
    outer loop
      vertex 80.85348320007324 69.28876876831055 2.0066413808361716e-15
      vertex 78.49600219726562 72.76699829101562 27.062999984715137
      vertex 80.8547134399414 69.28694915771484 2.0066413808361716e-15
    endloop
  endfacet
  facet normal -0.914454598459241 0.4046885065785146 0
    outer loop
      vertex 47.41100311279297 75.65199851989746 17.99600054929033
      vertex 49.565101623535156 80.5195083618164 7.994000217411668
      vertex 47.41100311279297 75.65199851989746 1.6167622796103842e-15
    endloop
  endfacet
  facet normal 9.842548486573789e-21 -6.122558922894802e-17 -1
    outer loop
      vertex 51.470733642578125 84.82555961608887 1.055145554262893e-15
      vertex 78.49600219726562 72.76699829101562 1.7937040741600185e-15
      vertex 47.41100311279297 75.65199851989746 1.6167622796103842e-15
    endloop
  endfacet
  facet normal -0.9144541320591358 0.404689560477391 -7.673923891266103e-7
    outer loop
      vertex 49.565101623535156 80.5195083618164 7.994000217411668
      vertex 50.94758224487305 83.64341926574707 6.709140083286912
      vertex 47.41100311279297 75.65199851989746 1.6167622796103842e-15
    endloop
  endfacet
  facet normal -0.9144544164637246 0.4046889178245028 1.480049466839649e-7
    outer loop
      vertex 51.470733642578125 84.82555961608887 1.055145554262893e-15
      vertex 47.41100311279297 75.65199851989746 1.6167622796103842e-15
      vertex 50.94758224487305 83.64341926574707 6.709140083286912
    endloop
  endfacet
  facet normal 1.1054100122803579e-20 -6.121253512894277e-17 -0.9999999999999999
    outer loop
      vertex 78.49600219726562 72.76699829101562 1.7937040741600185e-15
      vertex 80.85348320007324 69.28876876831055 2.0066413808361716e-15
      vertex 47.41100311279297 75.65199851989746 1.6167622796103842e-15
    endloop
  endfacet
  facet normal 0 1 0
    outer loop
      vertex 47.41100311279297 75.65199851989746 1.6167622796103842e-15
      vertex 30.2760009765625 75.65199851989746 16.496999999973923
      vertex 47.41100311279297 75.65199851989746 17.99600054929033
    endloop
  endfacet
  facet normal 0.8277793153676047 0.5610538343595376 0
    outer loop
      vertex 78.49600219726562 72.76699829101562 1.7937040741600185e-15
      vertex 78.49600219726562 72.76699829101562 27.062999984715137
      vertex 80.85348320007324 69.28876876831055 2.0066413808361716e-15
    endloop
  endfacet
  facet normal 0.19213785978212425 0.9813679446763811 0
    outer loop
      vertex 100.8020031452179 61.292999267578125 28.6776392669417
      vertex 100.8020031452179 61.292999267578125 2.4962670819306254e-15
      vertex 84.0490026473999 64.572998046875 26.874000808689747
    endloop
  endfacet
  facet normal 0.8278143524502735 0.5610021370585175 0.000009649387405557067
    outer loop
      vertex 84.0490026473999 64.572998046875 34.87399890134111
      vertex 83.10195350646973 65.97060012817383 26.906339904759083
      vertex 78.49600219726562 72.76699829101562 35.06300189206377
    endloop
  endfacet
  facet normal 0.6669940390013213 0.4654379402312884 -0.5817959055630758
    outer loop
      vertex 84.4479627609253 67.46308898925781 37.64346148679033
      vertex 84.0490026473999 64.572998046875 34.87399890134111
      vertex 82.56397247314453 70.4043083190918 37.83656146237627
    endloop
  endfacet
  facet normal 0.8278398996836778 0.5609644378137693 0
    outer loop
      vertex 84.0490026473999 64.572998046875 26.874000808689747
      vertex 83.10195350646973 65.97060012817383 26.906339904759083
      vertex 84.0490026473999 64.572998046875 34.87399890134111
    endloop
  endfacet
  facet normal 0.6669966801691141 0.4654373246895609 -0.5817933700457621
    outer loop
      vertex 78.49600219726562 72.76699829101562 35.06300189206377
      vertex 82.56397247314453 70.4043083190918 37.83656146237627
      vertex 84.0490026473999 64.572998046875 34.87399890134111
    endloop
  endfacet
  facet normal 0.6574195526574513 0.4593057500946707 -0.5973589873046595
    outer loop
      vertex 84.0490026473999 64.572998046875 26.874000808689747
      vertex 78.49600219726562 72.76699829101562 27.062999984715137
      vertex 83.10195350646973 65.97060012817383 26.906339904759083
    endloop
  endfacet
  facet normal -0.027164995360867108 0.9848258154050185 0.1714064652773771
    outer loop
      vertex 24.3084716796875 81.5731201171875 14.382310173008593
      vertex 23.46100616455078 82.41399955749512 9.416679641697558
      vertex 0 79.09099960327148 24.791000625584275
    endloop
  endfacet
  facet normal -0.027165201014901205 0.9848258625781964 0.17140616164809191
    outer loop
      vertex 4.3836212158203125 83.52672004699707 1.1345091532888318e-15
      vertex 0 79.09099960327148 24.791000625584275
      vertex 23.46100616455078 82.41399955749512 9.416679641697558
    endloop
  endfacet
  facet normal -0.027164705646670045 0.9848257100101013 0.17140711674323655
    outer loop
      vertex 24.55359649658203 81.44823837280273 15.138670227024706
      vertex 24.3084716796875 81.5731201171875 14.382310173008593
      vertex 0 79.09099960327148 24.791000625584275
    endloop
  endfacet
  facet normal -0.027164640876383934 0.9848256842163885 0.17140727520668197
    outer loop
      vertex 25.169586181640625 81.13412857055664 17.041019699070603
      vertex 24.55359649658203 81.44823837280273 15.138670227024706
      vertex 0 79.09099960327148 24.791000625584275
    endloop
  endfacet
  facet normal -0.027171354918878687 0.9848291355621803 0.17138637991311004
    outer loop
      vertex 25.169586181640625 81.13412857055664 17.041019699070603
      vertex 0 79.09099960327148 24.791000625584275
      vertex 25.760421752929688 80.83285903930664 18.8658602447249
    endloop
  endfacet
  facet normal -0.027171425888463253 0.9848291965169441 0.17138601839992157
    outer loop
      vertex 0 79.09099960327148 24.791000625584275
      vertex 67.01800155639648 78.88411903381348 36.60478045651689
      vertex 29.797073364257812 80.40419006347656 21.96907069394365
    endloop
  endfacet
  facet normal -0.02717141392432076 0.9848291764844781 0.17138613540849246
    outer loop
      vertex 29.797073364257812 80.40419006347656 21.96907069394365
      vertex 25.760421752929688 80.83285903930664 18.8658602447249
      vertex 0 79.09099960327148 24.791000625584275
    endloop
  endfacet
  facet normal 0.6669995626169631 0.4655831652125652 -0.5816733617241117
    outer loop
      vertex 78.49600219726562 72.76699829101562 35.06300189206377
      vertex 81.58984375 71.9244499206543 37.9362890929915
      vertex 82.56397247314453 70.4043083190918 37.83656146237627
    endloop
  endfacet
  facet normal -0.17148692066992394 -0.17351425575962418 0.9697860790335832
    outer loop
      vertex 84.0855827331543 78.83143997192383 39.613409301731735
      vertex 67.01800155639648 78.88411903381348 36.60478045651689
      vertex 81.58984375 71.9244499206543 37.9362890929915
    endloop
  endfacet
  facet normal 0.669989859893914 -0.062470819421728746 -0.7397371048961322
    outer loop
      vertex 78.49600219726562 72.76699829101562 35.06300189206377
      vertex 81.69266319274902 79.14721870422363 37.41945101926103
      vertex 81.58984375 71.9244499206543 37.9362890929915
    endloop
  endfacet
  facet normal 0.6699883820758562 -0.06247089371247712 -0.7397384370993175
    outer loop
      vertex 81.58984375 71.9244499206543 37.9362890929915
      vertex 81.69266319274902 79.14721870422363 37.41945101926103
      vertex 84.0855827331543 78.83143997192383 39.613409301731735
    endloop
  endfacet
  facet normal -0.02717190435739604 0.9848290610840985 0.1713867207744097
    outer loop
      vertex 48.98149490356445 81.28712844848633 19.93697955319658
      vertex 67.01800155639648 78.88411903381348 36.60478045651689
      vertex 49.63885498046875 81.66738891601562 17.856130859348923
    endloop
  endfacet
  facet normal -0.027171618273792573 0.9848291076696252 0.17138649843856738
    outer loop
      vertex 46.92455291748047 80.6009292602539 23.55394961545244
      vertex 29.797073364257812 80.40419006347656 21.96907069394365
      vertex 67.01800155639648 78.88411903381348 36.60478045651689
    endloop
  endfacet
  facet normal -0.027171443662476952 0.9848291581170109 0.17138623623802543
    outer loop
      vertex 46.92455291748047 80.6009292602539 23.55394961545244
      vertex 67.01800155639648 78.88411903381348 36.60478045651689
      vertex 48.98149490356445 81.28712844848633 19.93697955319658
    endloop
  endfacet
  facet normal -0.027172309616859115 0.9848289864561919 0.1713870853528795
    outer loop
      vertex 49.63885498046875 81.66738891601562 17.856130859348923
      vertex 67.01800155639648 78.88411903381348 36.60478045651689
      vertex 50.27509307861328 82.12383842468262 15.334140083286913
    endloop
  endfacet
  facet normal -0.027171498724421747 0.9848291164616935 0.17138646687048917
    outer loop
      vertex 50.27509307861328 82.12383842468262 15.334140083286913
      vertex 67.01800155639648 78.88411903381348 36.60478045651689
      vertex 80.51359367370605 85.62666893005371 1.0061396160665481e-15
    endloop
  endfacet
  facet normal -0.027171631585577772 0.9848291211695995 0.17138641875391364
    outer loop
      vertex 79.75922393798828 79.40237998962402 35.64671923825517
      vertex 80.51359367370605 85.62666893005371 1.0061396160665481e-15
      vertex 67.01800155639648 78.88411903381348 36.60478045651689
    endloop
  endfacet
  facet normal -0.027171514594764856 0.9848288766544289 0.17138784234070525
    outer loop
      vertex 81.69266319274902 79.14721870422363 37.41945101926103
      vertex 79.75922393798828 79.40237998962402 35.64671923825517
      vertex 67.01800155639648 78.88411903381348 36.60478045651689
    endloop
  endfacet
  facet normal -0.027171255372213824 0.9848297452111987 0.17138289246229776
    outer loop
      vertex 84.0855827331543 78.83143997192383 39.613409301731735
      vertex 81.69266319274902 79.14721870422363 37.41945101926103
      vertex 67.01800155639648 78.88411903381348 36.60478045651689
    endloop
  endfacet
  facet normal -0.027164117961738503 0.9848262660417021 0.1714040151505189
    outer loop
      vertex 23.380859375 82.65939903259277 7.994000217411668
      vertex 4.3836212158203125 83.52672004699707 1.1345091532888318e-15
      vertex 23.46100616455078 82.41399955749512 9.416679641697558
    endloop
  endfacet
  facet normal -0.02716533777981057 0.98482582950698 0.17140632998578956
    outer loop
      vertex 23.123001098632812 83.44899940490723 3.4164600581862046
      vertex 23.136886596679688 84.04400825500488 1.1028504498522551e-15
      vertex 4.3836212158203125 83.52672004699707 1.1345091532888318e-15
    endloop
  endfacet
  facet normal -0.027165480043999372 0.9848256903203755 0.17140710714254256
    outer loop
      vertex 23.123001098632812 83.44899940490723 3.4164600581862046
      vertex 4.3836212158203125 83.52672004699707 1.1345091532888318e-15
      vertex 23.34656524658203 82.76441955566406 7.385169765446336
    endloop
  endfacet
  facet normal -0.02716590562472117 0.9848254919502808 0.17140817943282666
    outer loop
      vertex 23.34656524658203 82.76441955566406 7.385169765446336
      vertex 4.3836212158203125 83.52672004699707 1.1345091532888318e-15
      vertex 23.380859375 82.65939903259277 7.994000217411668
    endloop
  endfacet
  facet normal 6.441685071831454e-22 -6.122463881694285e-17 -1
    outer loop
      vertex 23.136886596679688 84.04400825500488 1.1028504498522551e-15
      vertex 23.123001098632812 83.44899940490723 1.139279642847768e-15
      vertex 4.3836212158203125 83.52672004699707 1.1345091532888318e-15
    endloop
  endfacet
  facet normal 8.460147829012302e-22 -6.117597125660232e-17 -1
    outer loop
      vertex 23.123001098632812 83.44899940490723 1.139279642847768e-15
      vertex 23.46100616455078 82.41399955749512 1.2025970497209215e-15
      vertex 4.3836212158203125 83.52672004699707 1.1345091532888318e-15
    endloop
  endfacet
  facet normal 0.9505930078622249 0.31043990304638375 0
    outer loop
      vertex 23.123001098632812 83.44899940490723 1.139279642847768e-15
      vertex 23.123001098632812 83.44899940490723 3.4164600581862046
      vertex 23.46100616455078 82.41399955749512 1.2025970497209215e-15
    endloop
  endfacet
  facet normal 0.950593007862225 0.31043990304638314 0
    outer loop
      vertex 23.46100616455078 82.41399955749512 6.0820000381208965
      vertex 23.46100616455078 82.41399955749512 1.2025970497209215e-15
      vertex 23.123001098632812 83.44899940490723 3.4164600581862046
    endloop
  endfacet
  facet normal 0 1.5198067538535736e-15 1
    outer loop
      vertex 28.85655975341797 77.06040000915527 7.994000217411669
      vertex 25.438011169433594 80.66650009155273 7.994000217411668
      vertex 23.46100616455078 82.41399955749512 7.994000217411668
    endloop
  endfacet
  facet normal 0.7204197064844492 0.6829510305325481 -0.1207200745667048
    outer loop
      vertex 23.46100616455078 82.41399955749512 6.0820000381208965
      vertex 25.438011169433594 80.66650009155273 7.994000217411668
      vertex 28.85655975341797 77.06040000915527 7.994000217411669
    endloop
  endfacet
  facet normal 0.704341636634485 0.7098611546653479 4.838274651624804e-7
    outer loop
      vertex 23.46100616455078 82.41399955749512 9.416679641697558
      vertex 24.3084716796875 81.5731201171875 14.382310173008593
      vertex 28.85655975341797 77.06040000915527 7.994000217411669
    endloop
  endfacet
  facet normal 0.7043412212157781 0.7098615668538871 -1.0309652603633365e-7
    outer loop
      vertex 30.2760009765625 75.65199851989746 16.496999999973923
      vertex 28.85655975341797 77.06040000915527 7.994000217411669
      vertex 24.3084716796875 81.5731201171875 14.382310173008593
    endloop
  endfacet
  facet normal 0.7043415723497466 0.7098612184504001 0
    outer loop
      vertex 28.85655975341797 77.06040000915527 7.994000217411669
      vertex 23.46100616455078 82.41399955749512 7.994000217411668
      vertex 23.46100616455078 82.41399955749512 9.416679641697558
    endloop
  endfacet
  facet normal 0.7203007141343588 0.6831265664925037 -0.12043660311423428
    outer loop
      vertex 23.46100616455078 82.41399955749512 6.0820000381208965
      vertex 23.34656524658203 82.76441955566406 7.385169765446336
      vertex 25.438011169433594 80.66650009155273 7.994000217411668
    endloop
  endfacet
  facet normal 0.9505921856451828 0.31044242073071104 0.0000010818507451557093
    outer loop
      vertex 23.34656524658203 82.76441955566406 7.385169765446336
      vertex 23.46100616455078 82.41399955749512 6.0820000381208965
      vertex 23.123001098632812 83.44899940490723 3.4164600581862046
    endloop
  endfacet
  facet normal 0.022564994523542308 0.9658975680924783 -0.2579393513506396
    outer loop
      vertex 47.41100311279297 75.65199851989746 17.99600054929033
      vertex 30.2760009765625 75.65199851989746 16.496999999973923
      vertex 47.07400131225586 76.6879997253418 21.846000930760056
    endloop
  endfacet
  facet normal 0.022565001319853666 0.9658975625222054 -0.2579393716149156
    outer loop
      vertex 29.939002990722656 76.6879997253418 20.34700038144365
      vertex 47.07400131225586 76.6879997253418 21.846000930760056
      vertex 30.2760009765625 75.65199851989746 16.496999999973923
    endloop
  endfacet
  facet normal 0.7204189553172226 0.6829526636515215 -0.12071531812878426
    outer loop
      vertex 24.3084716796875 81.5731201171875 14.382310173008593
      vertex 24.55359649658203 81.44823837280273 15.138670227024706
      vertex 30.2760009765625 75.65199851989746 16.496999999973923
    endloop
  endfacet
  facet normal 0.7204189970300201 0.6829523582091941 -0.12071679723534973
    outer loop
      vertex 29.939002990722656 76.6879997253418 20.34700038144365
      vertex 30.2760009765625 75.65199851989746 16.496999999973923
      vertex 24.55359649658203 81.44823837280273 15.138670227024706
    endloop
  endfacet
  facet normal 0.8277780624820562 0.5610556828635221 0
    outer loop
      vertex 78.49600219726562 72.76699829101562 27.062999984715137
      vertex 78.49600219726562 72.76699829101562 35.06300189206377
      vertex 79.19495391845703 71.73576927185059 27.03932025143877
    endloop
  endfacet
  facet normal 0.6556055613127237 0.458142779054098 -0.6002387374840253
    outer loop
      vertex 79.19495391845703 71.73576927185059 27.03932025143877
      vertex 83.10195350646973 65.97060012817383 26.906339904759083
      vertex 78.49600219726562 72.76699829101562 27.062999984715137
    endloop
  endfacet
  facet normal 0.9823565353207866 -0.18701774651765035 0
    outer loop
      vertex 78.49600219726562 72.76699829101562 27.062999984715137
      vertex 79.75922393798828 79.40237998962402 35.64671923825517
      vertex 78.49600219726562 72.76699829101562 35.06300189206377
    endloop
  endfacet
  facet normal 0.9823564467470455 -0.1870182117723278 0
    outer loop
      vertex 78.49600219726562 72.76699829101562 1.7937040741600185e-15
      vertex 80.94646263122559 85.63860893249512 1.0052722543285597e-15
      vertex 78.49600219726562 72.76699829101562 27.062999984715137
    endloop
  endfacet
  facet normal 0.9823565015822748 -0.18701792373730888 1.4195936010879433e-7
    outer loop
      vertex 79.75922393798828 79.40237998962402 35.64671923825517
      vertex 78.49600219726562 72.76699829101562 27.062999984715137
      vertex 80.94646263122559 85.63860893249512 1.0052722543285597e-15
    endloop
  endfacet
  facet normal -0.9144545259841894 0.4046886703467521 9.530712699485857e-8
    outer loop
      vertex 50.27509307861328 82.12383842468262 15.334140083286913
      vertex 49.565101623535156 80.5195083618164 7.994000217411668
      vertex 47.41100311279297 75.65199851989746 17.99600054929033
    endloop
  endfacet
  facet normal -0.9250590491488532 0.3386022352957164 -0.17208800609154654
    outer loop
      vertex 49.63885498046875 81.66738891601562 17.856130859348923
      vertex 47.41100311279297 75.65199851989746 17.99600054929033
      vertex 47.07400131225586 76.6879997253418 21.846000930760056
    endloop
  endfacet
  facet normal -0.9250591324932183 0.33860227855969915 -0.17208747294638985
    outer loop
      vertex 50.27509307861328 82.12383842468262 15.334140083286913
      vertex 47.41100311279297 75.65199851989746 17.99600054929033
      vertex 49.63885498046875 81.66738891601562 17.856130859348923
    endloop
  endfacet
  facet normal -0.9144553415054362 0.4046868275492091 5.769694223358086e-7
    outer loop
      vertex 50.27509307861328 82.12383842468262 15.334140083286913
      vertex 50.756263732910156 83.21113014221191 9.162599822971972
      vertex 49.565101623535156 80.5195083618164 7.994000217411668
    endloop
  endfacet
  facet normal -0.914454060661264 0.4046897217442552 -0.000007394769938237645
    outer loop
      vertex 50.84739303588867 83.41702842712402 7.994000217411668
      vertex 49.565101623535156 80.5195083618164 7.994000217411668
      vertex 50.756263732910156 83.21113014221191 9.162599822971972
    endloop
  endfacet
  facet normal 0 0 1
    outer loop
      vertex 49.565101623535156 80.5195083618164 7.994000217411668
      vertex 50.84739303588867 83.41702842712402 7.994000217411668
      vertex 50.62343215942383 83.41084861755371 7.994000217411668
    endloop
  endfacet
  facet normal -0.9250586578363614 0.33860346361302196 -0.1720876927361575
    outer loop
      vertex 50.62343215942383 83.41084861755371 7.994000217411668
      vertex 50.94758224487305 83.64341926574707 6.709140083286912
      vertex 49.565101623535156 80.5195083618164 7.994000217411668
    endloop
  endfacet
  facet normal -0.027165131533954806 0.9848257898327866 0.17140659062291305
    outer loop
      vertex 80.51359367370605 85.62666893005371 1.0061396160665481e-15
      vertex 51.470733642578125 84.82555961608887 1.055145554262893e-15
      vertex 50.94758224487305 83.64341926574707 6.709140083286912
    endloop
  endfacet
  facet normal 1.949625733497174e-21 -6.124327859929104e-17 -1
    outer loop
      vertex 80.51359367370605 85.62666893005371 1.0061396160665481e-15
      vertex 78.49600219726562 72.76699829101562 1.7937040741600185e-15
      vertex 51.470733642578125 84.82555961608887 1.055145554262893e-15
    endloop
  endfacet
  facet normal -3.1582799617179553e-19 -6.119342153534624e-17 -1
    outer loop
      vertex 80.94646263122559 85.63860893249512 1.0052722543285597e-15
      vertex 78.49600219726562 72.76699829101562 1.7937040741600185e-15
      vertex 80.51359367370605 85.62666893005371 1.0061396160665481e-15
    endloop
  endfacet
  facet normal -0.027174544191049994 0.9848256107756433 0.1714061273945294
    outer loop
      vertex 50.84739303588867 83.41702842712402 7.994000217411668
      vertex 50.94758224487305 83.64341926574707 6.709140083286912
      vertex 50.62343215942383 83.41084861755371 7.994000217411668
    endloop
  endfacet
  facet normal -0.027165060321180778 0.9848257397535608 0.1714068896415729
    outer loop
      vertex 80.51359367370605 85.62666893005371 1.0061396160665481e-15
      vertex 50.94758224487305 83.64341926574707 6.709140083286912
      vertex 50.84739303588867 83.41702842712402 7.994000217411668
    endloop
  endfacet
  facet normal 0.8278146119277117 0.5610017541654038 0.000010114949725859894
    outer loop
      vertex 78.49600219726562 72.76699829101562 35.06300189206377
      vertex 83.10195350646973 65.97060012817383 26.906339904759083
      vertex 79.19495391845703 71.73576927185059 27.03932025143877
    endloop
  endfacet
  facet normal 0.6699977414888844 -0.062477616866294786 -0.7397293922715946
    outer loop
      vertex 78.49600219726562 72.76699829101562 35.06300189206377
      vertex 79.75922393798828 79.40237998962402 35.64671923825517
      vertex 81.69266319274902 79.14721870422363 37.41945101926103
    endloop
  endfacet
  facet normal 0.9505867683557149 0.3104590082877902 0
    outer loop
      vertex 23.46100616455078 82.41399955749512 9.416679641697558
      vertex 23.46100616455078 82.41399955749512 7.994000217411668
      vertex 23.380859375 82.65939903259277 7.994000217411668
    endloop
  endfacet
  facet normal 0.7203040407269149 0.6831219418177321 -0.12044293885342497
    outer loop
      vertex 24.55359649658203 81.44823837280273 15.138670227024706
      vertex 25.169586181640625 81.13412857055664 17.041019699070603
      vertex 29.939002990722656 76.6879997253418 20.34700038144365
    endloop
  endfacet
  facet normal 0.7203019944160048 0.6831254523673471 -0.12043526546752391
    outer loop
      vertex 25.760421752929688 80.83285903930664 18.8658602447249
      vertex 29.939002990722656 76.6879997253418 20.34700038144365
      vertex 25.169586181640625 81.13412857055664 17.041019699070603
    endloop
  endfacet
  facet normal 0.5955389380364065 0.3403593418419697 -0.7276598736383438
    outer loop
      vertex 25.760421752929688 80.83285903930664 18.8658602447249
      vertex 29.797073364257812 80.40419006347656 21.96907069394365
      vertex 29.939002990722656 76.6879997253418 20.34700038144365
    endloop
  endfacet
  facet normal 0.07982314135102435 0.40132332411219507 -0.912451563442352
    outer loop
      vertex 46.92455291748047 80.6009292602539 23.55394961545244
      vertex 47.07400131225586 76.6879997253418 21.846000930760056
      vertex 29.797073364257812 80.40419006347656 21.96907069394365
    endloop
  endfacet
  facet normal 0.07982294425153827 0.40132242149608516 -0.9124519776818582
    outer loop
      vertex 29.939002990722656 76.6879997253418 20.34700038144365
      vertex 29.797073364257812 80.40419006347656 21.96907069394365
      vertex 47.07400131225586 76.6879997253418 21.846000930760056
    endloop
  endfacet
  facet normal -0.8702121258762486 0.16879629491544212 -0.46285923000493256
    outer loop
      vertex 47.07400131225586 76.6879997253418 21.846000930760056
      vertex 46.92455291748047 80.6009292602539 23.55394961545244
      vertex 48.98149490356445 81.28712844848633 19.93697955319658
    endloop
  endfacet
  facet normal -0.9277978770206999 0.2847429177601731 -0.24106548940340972
    outer loop
      vertex 48.98149490356445 81.28712844848633 19.93697955319658
      vertex 49.63885498046875 81.66738891601562 17.856130859348923
      vertex 47.07400131225586 76.6879997253418 21.846000930760056
    endloop
  endfacet
  facet normal -0.02717115938279095 0.984829013464584 0.1713871125148249
    outer loop
      vertex 50.756263732910156 83.21113014221191 9.162599822971972
      vertex 50.27509307861328 82.12383842468262 15.334140083286913
      vertex 80.51359367370605 85.62666893005371 1.0061396160665481e-15
    endloop
  endfacet
  facet normal -0.027166886215066015 0.9848268168936585 0.17140041137780915
    outer loop
      vertex 50.84739303588867 83.41702842712402 7.994000217411668
      vertex 50.756263732910156 83.21113014221191 9.162599822971972
      vertex 80.51359367370605 85.62666893005371 1.0061396160665481e-15
    endloop
  endfacet
  facet normal -0.02716495086423219 0.9848292761559222 0.17138658719615824
    outer loop
      vertex 80.94646263122559 85.63860893249512 1.0052722543285597e-15
      vertex 80.51359367370605 85.62666893005371 1.0061396160665481e-15
      vertex 79.75922393798828 79.40237998962402 35.64671923825517
    endloop
  endfacet
  facet normal -0.027208840730131332 0.984823932556813 0.17141032888789542
    outer loop
      vertex 23.543716430664062 82.66389846801758 7.994000217411668
      vertex 23.34656524658203 82.76441955566406 7.385169765446336
      vertex 23.380859375 82.65939903259277 7.994000217411668
    endloop
  endfacet
  facet normal 3.44142930549453e-16 0 1
    outer loop
      vertex 23.380859375 82.65939903259277 7.994000217411668
      vertex 23.46100616455078 82.41399955749512 7.994000217411668
      vertex 23.543716430664062 82.66389846801758 7.994000217411668
    endloop
  endfacet
  facet normal 0.999727812150588 -0.02333027245016227 0
    outer loop
      vertex 23.123001098632812 83.44899940490723 1.139279642847768e-15
      vertex 23.136886596679688 84.04400825500488 1.1028504498522551e-15
      vertex 23.123001098632812 83.44899940490723 3.4164600581862046
    endloop
  endfacet
  facet normal 0.7203020716120097 0.6831208238961136 -0.12046105424967152
    outer loop
      vertex 23.543716430664062 82.66389846801758 7.994000217411668
      vertex 25.438011169433594 80.66650009155273 7.994000217411668
      vertex 23.34656524658203 82.76441955566406 7.385169765446336
    endloop
  endfacet
  facet normal 0 0 1
    outer loop
      vertex 25.438011169433594 80.66650009155273 7.994000217411668
      vertex 23.543716430664062 82.66389846801758 7.994000217411668
      vertex 23.46100616455078 82.41399955749512 7.994000217411668
    endloop
  endfacet
endsolid Untitled Scene
